<svg width="437" height="723" viewBox="0 0 437 723" fill="none" xmlns="http://www.w3.org/2000/svg">
<g clip-path="url(#clip0_187_2)">
<path d="M430.17 139.374H429.34V52.2847C429.34 23.4083 405.921 0 377.032 0H59.9684C31.0788 0 7.65982 23.4083 7.65982 52.2847V139.374H6.83018C3.05982 139.374 0 142.428 0 146.201V206.446C0 210.215 3.05571 213.273 6.83018 213.273H7.65982V227.641H6.83018C3.05982 227.641 0 230.696 0 234.468V294.713C0 298.482 3.05571 301.54 6.83018 301.54H7.65982V670.662C7.65982 699.538 31.0788 722.947 59.9684 722.947H377.032C405.921 722.947 429.34 699.538 429.34 670.662V250.216H430.17C433.94 250.216 437 247.162 437 243.389V146.197C437 142.428 433.944 139.37 430.17 139.37V139.374ZM414.119 667.542C414.119 690.995 395.099 710.007 371.635 710.007H65.3652C41.9011 710.007 22.8809 690.995 22.8809 667.542V55.3965C22.8809 31.9431 41.9011 12.9316 65.3652 12.9316H371.631C395.095 12.9316 414.115 31.9431 414.115 55.3965V667.538L414.119 667.542Z" fill="#252526"/>
</g>
<defs>
<clipPath id="clip0_187_2">
<rect width="437" height="722.938" fill="white"/>
</clipPath>
</defs>
</svg>
